HIERARCHY
ROOT pelvis
{
	OFFSET 0.055597 -33.824966 1.352531
	CHANNELS 6 Xposition Yposition Zposition Zrotation Yrotation Xrotation
	JOINT left_hip
	{
		OFFSET 7.289877 -8.847819 -1.448424
		CHANNELS 3 Zrotation Yrotation Xrotation
		JOINT left_knee
		{
			OFFSET 2.633776 -37.622417 -2.124449
			CHANNELS 3 Zrotation Yrotation Xrotation
			JOINT left_ankle
			{
				OFFSET -0.827589 -38.695080 -2.059698
				CHANNELS 3 Zrotation Yrotation Xrotation
				JOINT left_foot
				{
					OFFSET 2.154786 -4.389101 10.739969
					CHANNELS 3 Zrotation Yrotation Xrotation
					End Site
					{
						OFFSET 0.000000 0.000000 0.000000
					}
				}
			}
		}
	}
	JOINT right_hip
	{
		OFFSET -7.219493 -9.492825 -1.581261
		CHANNELS 3 Zrotation Yrotation Xrotation
		JOINT right_knee
		{
			OFFSET -3.021611 -37.205841 -1.511023
			CHANNELS 3 Zrotation Yrotation Xrotation
			JOINT right_ankle
			{
				OFFSET 0.360309 -37.838560 -1.689252
				CHANNELS 3 Zrotation Yrotation Xrotation
				JOINT right_foot
				{
					OFFSET -1.740333 -4.733413 10.112992
					CHANNELS 3 Zrotation Yrotation Xrotation
					End Site
					{
						OFFSET 0.000000 0.000000 0.000000
					}
				}
			}
		}
	}
	JOINT spine1
	{
		OFFSET -0.546047 10.221239 -2.646125
		CHANNELS 3 Zrotation Yrotation Xrotation
		JOINT spine2
		{
			OFFSET 1.017094 11.716583 -1.027591
			CHANNELS 3 Zrotation Yrotation Xrotation
			JOINT spine3
			{
				OFFSET -0.556256 4.382453 3.204545
				CHANNELS 3 Zrotation Yrotation Xrotation
				JOINT neck
				{
					OFFSET -0.576223 19.407586 -3.996177
					CHANNELS 3 Zrotation Yrotation Xrotation
					JOINT head
					{
						OFFSET 0.877515 14.609154 2.074341
						CHANNELS 3 Zrotation Yrotation Xrotation
						End Site
						{
							OFFSET 0.000000 0.000000 0.000000
						}
					}
				}
				JOINT left_collar
				{
					OFFSET 5.223838 11.427989 -1.797838
					CHANNELS 3 Zrotation Yrotation Xrotation
					JOINT left_shoulder
					{
						OFFSET 8.847861 4.555448 -2.764151
						CHANNELS 3 Zrotation Yrotation Xrotation
						JOINT left_elbow
						{
							OFFSET 27.224420 -5.588281 -2.727877
							CHANNELS 3 Zrotation Yrotation Xrotation
							JOINT left_wrist
							{
								OFFSET 22.742010 0.754229 0.408456
								CHANNELS 3 Zrotation Yrotation Xrotation
								End Site
								{
									OFFSET 0.000000 0.000000 0.000000
								}
							}
						}
					}
				}
				JOINT right_collar
				{
					OFFSET -5.469769 11.025515 -2.447681
					CHANNELS 3 Zrotation Yrotation Xrotation
					JOINT right_shoulder
					{
						OFFSET -9.560346 4.785337 -2.076557
						CHANNELS 3 Zrotation Yrotation Xrotation
						JOINT right_elbow
						{
							OFFSET -26.255708 -5.077782 -2.029933
							CHANNELS 3 Zrotation Yrotation Xrotation
							JOINT right_wrist
							{
								OFFSET -22.811481 0.335400 -0.475552
								CHANNELS 3 Zrotation Yrotation Xrotation
								End Site
								{
									OFFSET 0.000000 0.000000 0.000000
								}
							}
						}
					}
				}
			}
		}
	}
}
MOTION
Frames: 7
Frame Time: 0.033333
-63.493998 97.185532 25.998836 16.060827 -21.967581 -16.127354 3.650695 0.077593 -11.452253 4.279734 -7.103166 35.013985 -10.000897 6.986631 1.536085 8.963058 0.477448 -5.648069 2.385520 4.038573 0.876083 -2.652032 3.310322 9.863547 7.176266 -7.588435 -0.223705 -7.719666 -1.001479 -5.450187 -0.511817 -0.860414 17.969725 -3.651740 -3.106203 5.822102 -8.100069 -3.213703 -26.591591 -8.381667 11.437565 15.931092 0.558786 -8.030033 18.043428 6.627621 10.897492 -4.609719 -73.158859 -17.404036 23.250013 -7.208718 -9.243105 19.290728 66.621620 24.521467 17.214705 -26.720953 5.165442 -1.486243 71.513885 11.237511 17.792873 142.896271 83.065506 155.417969 -43.078728 -19.521587 10.969738 
-62.751383 97.171372 26.008899 14.058899 -24.195896 -15.983509 -2.186507 0.204698 -7.616677 6.978378 -5.991601 19.652189 -9.648822 7.082549 1.530045 8.856721 0.435075 -5.613481 4.325553 4.391663 1.598471 -2.410661 2.649400 9.811841 7.019356 -7.636564 -0.167161 -7.635842 -0.933061 -5.520085 0.214766 -0.836534 17.120155 -3.009767 -2.894959 6.096109 -7.257082 -2.898978 -24.833632 -6.871242 10.805609 17.257215 1.247962 -9.070477 21.781679 8.644852 12.527309 -3.736692 -75.753693 -15.387849 25.098940 -11.323615 -5.760089 25.004951 60.530247 32.264267 18.136074 -29.606863 5.486930 -0.226858 70.978775 9.918115 24.286634 78.396111 70.943939 92.003159 -44.996296 -25.851393 20.714684 
-63.162375 97.254533 25.832905 13.681561 -24.378019 -16.417604 -4.281584 -0.787901 -9.283916 6.511223 -5.061724 18.084080 -9.442296 7.166193 1.519945 8.829088 0.432736 -5.600869 5.388363 3.282174 2.486077 -2.125260 1.748094 10.507696 6.792206 -7.667416 -0.294328 -7.573677 -0.913521 -5.658370 0.223986 -0.073491 17.005951 -2.545151 -2.312356 6.449323 -6.174208 -2.414746 -24.277023 -5.219882 9.387362 18.749460 0.413690 -10.824899 22.170925 8.272187 13.824084 -3.509510 -76.603889 -12.819454 25.625711 -12.137000 -6.571210 26.252596 59.227940 32.320160 19.323400 -26.765690 6.493796 -0.737034 75.625969 10.262193 25.029818 40.478180 62.647747 53.286957 -42.243900 -29.562654 20.224306 
-63.573362 97.337708 25.656912 13.305991 -24.566570 -16.849104 -6.323356 -1.900624 -10.879618 5.999158 -4.162065 16.498163 -9.235715 7.249897 1.510413 8.801455 0.430401 -5.588227 6.414945 2.141281 3.333447 -1.861646 0.840164 11.195325 6.565267 -7.699308 -0.422402 -7.511601 -0.894459 -5.796556 0.229917 0.691235 16.891905 -2.073441 -1.735681 6.812135 -5.082645 -1.951675 -23.702076 -3.651832 7.892643 20.162304 -0.456934 -12.569649 22.614080 7.900502 15.124554 -3.299562 -77.409988 -10.232471 26.077490 -12.990044 -7.349231 27.524786 57.929890 32.432629 20.507936 -23.911541 7.549530 -1.145245 80.314156 10.486336 25.825121 23.809855 46.772739 35.608597 -39.100189 -33.236526 19.283371 
-63.984350 97.420869 25.480921 12.932232 -24.761436 -17.277771 -8.304256 -3.121671 -12.388885 5.443034 -3.295662 14.897858 -9.029074 7.333655 1.501456 8.773826 0.428072 -5.575572 7.405182 0.972354 4.139189 -1.619694 -0.073530 11.874502 6.338271 -7.732324 -0.547091 -7.449737 -0.873966 -5.934706 0.234542 1.454744 16.778059 -1.594613 -1.165187 7.184308 -3.983229 -1.511353 -23.110216 -2.168805 6.332126 21.489517 -1.365892 -14.299041 23.111555 7.529211 16.426924 -3.107177 -78.176819 -7.640596 26.455746 -13.881637 -8.091959 28.819025 56.638584 32.601028 21.683237 -21.055836 8.637645 -1.443038 84.978813 10.581785 26.641769 17.393240 30.757442 28.428143 -35.518955 -36.784485 17.851864 
-64.710043 97.014115 24.566633 13.001421 -25.820705 -17.959311 -10.548168 -4.173522 -13.900438 5.177951 -2.619212 15.644153 -8.914551 7.450837 1.556487 8.792502 0.411078 -5.600955 8.479584 0.486567 4.720080 -1.141185 -0.489564 12.634860 6.235132 -7.755563 -0.621625 -7.431652 -0.860013 -6.058241 0.321891 1.975599 16.715590 -1.099731 -0.604854 7.474096 -3.057620 -1.196833 -23.349251 -1.051554 5.096263 22.751749 -1.777961 -15.573029 23.090099 6.557598 16.471491 -2.529870 -77.054764 -5.598136 26.976049 -15.122859 -9.023254 29.941042 52.049541 29.031492 21.906412 -17.892612 9.052412 -0.906666 83.912018 9.867187 26.694544 15.323655 28.765142 24.871334 -32.395695 -32.735252 15.702952 
-65.435736 96.607362 23.652359 13.090910 -26.881855 -18.644583 -12.750268 -5.344296 -15.329831 4.930737 -1.936388 16.384689 -8.799720 7.567821 1.612121 8.810936 0.399374 -5.625958 9.544744 -0.020972 5.282769 -0.673791 -0.918145 13.388507 6.131863 -7.779221 -0.693518 -7.413671 -0.845688 -6.181730 0.407925 2.496710 16.654665 -0.599091 -0.047971 7.773614 -2.134599 -0.874326 -23.578110 0.008181 3.814841 23.968046 -2.194044 -16.847853 23.087746 5.586727 16.536367 -1.954205 -75.923576 -3.574534 27.577530 -16.406830 -9.908874 31.105015 47.612289 25.502430 22.783474 -14.707307 9.408047 -0.323744 82.848526 9.154654 26.774303 13.546384 26.654898 21.452404 -29.578979 -28.518055 14.056039 
